<?xml version="1.0" encoding="UTF-8" standalone="no"?>
<svg
   xmlns:dc="http://purl.org/dc/elements/1.1/"
   xmlns:cc="http://creativecommons.org/ns#"
   xmlns:rdf="http://www.w3.org/1999/02/22-rdf-syntax-ns#"
   xmlns:svg="http://www.w3.org/2000/svg"
   xmlns="http://www.w3.org/2000/svg"
   viewBox="0 0 793.62665 1122.6667"
   height="1122.6667"
   width="793.62665"
   xml:space="preserve"
   id="svg2"
   version="1.1"><metadata
     id="metadata8"><rdf:RDF><cc:Work
         rdf:about=""><dc:format>image/svg+xml</dc:format><dc:type
           rdf:resource="http://purl.org/dc/dcmitype/StillImage" /></cc:Work></rdf:RDF></metadata><defs
     id="defs6"><clipPath
       id="clipPath48"
       clipPathUnits="userSpaceOnUse"><path
         id="path46"
         d="m 85.56,769.22 h 33.78 v 9 H 85.56 Z" /></clipPath><clipPath
       id="clipPath224"
       clipPathUnits="userSpaceOnUse"><path
         id="path222"
         d="m 85.56,526.22 h 40.5 v 9 h -40.5 z" /></clipPath></defs><g
     transform="matrix(1.3333333,0,0,-1.3333333,0,1122.6667)"
     id="g10"><path
       id="path12"
       style="fill:#ffffff;fill-opacity:1;fill-rule:nonzero;stroke:none"
       d="m 0.78,518.72 h 192.78 v 285 H 0.78 Z" /><g
       transform="translate(59.28,530.72)"
       id="g14"><path
         id="path16"
         style="fill:none;stroke:#000000;stroke-width:0.06;stroke-linecap:round;stroke-linejoin:round;stroke-miterlimit:10;stroke-dasharray:none;stroke-opacity:1"
         d="M 0,0 H 11.28" /></g><g
       transform="translate(59.28,664.22)"
       id="g18"><path
         id="path20"
         style="fill:none;stroke:#000000;stroke-width:0.06;stroke-linecap:round;stroke-linejoin:round;stroke-miterlimit:10;stroke-dasharray:none;stroke-opacity:1"
         d="M 0,0 V -133.5" /></g><g
       transform="translate(52.56,664.22)"
       id="g22"><path
         id="path24"
         style="fill:none;stroke:#000000;stroke-width:0.06;stroke-linecap:round;stroke-linejoin:round;stroke-miterlimit:10;stroke-dasharray:none;stroke-opacity:1"
         d="M 0,0 H 18" /></g><path
       id="path26"
       style="fill:#c0c0c0;fill-opacity:1;fill-rule:nonzero;stroke:none"
       d="m 8.28,652.94 h 43.5 v 15.78 H 8.28 Z" /><path
       id="path28"
       style="fill:#ffffff;fill-opacity:1;fill-rule:nonzero;stroke:none"
       d="m 5.34,656 h 43.38 v 15.66 H 5.34 Z" /><path
       id="path30"
       style="fill:none;stroke:#000000;stroke-width:0.06;stroke-linecap:round;stroke-linejoin:round;stroke-miterlimit:10;stroke-dasharray:none;stroke-opacity:1"
       d="M 48.72,671.72 H 5.28 V 656 h 43.44 z" /><path
       id="path32"
       style="fill:#ffffff;fill-opacity:1;fill-rule:nonzero;stroke:none"
       d="m 12.06,659.18 h 26.28 v 9.54 H 12.06 Z" /><text
       id="text36"
       style="font-variant:normal;font-weight:bold;font-stretch:normal;font-size:8.25px;font-family:Arial;-inkscape-font-specification:Arial-BoldMT;writing-mode:lr-tb;fill:#000000;fill-opacity:1;fill-rule:nonzero;stroke:none"
       transform="matrix(1,0,0,-1,12.06,661.0403)"><tspan
         id="tspan34"
         y="0"
         x="0 4.4987249 9.72015 14.218875 18.7176 20.998726">specId</tspan></text>
<g
       transform="translate(125.28,766.94)"
       id="g38"><path
         id="path40"
         style="fill:#ffffff;fill-opacity:1;fill-rule:evenodd;stroke:#000000;stroke-width:0.06;stroke-linecap:round;stroke-linejoin:round;stroke-miterlimit:10;stroke-dasharray:none;stroke-opacity:1"
         d="M 0,0 V 14.28 H -54.72 V -219 H 63 V 0 Z" /></g><g
       id="g42"><g
         clip-path="url(#clipPath48)"
         id="g44"><path
           id="path50"
           style="fill:#ffffff;fill-opacity:1;fill-rule:nonzero;stroke:none"
           d="m 85.56,769.22 h 33.78 v 9 H 85.56 Z" /></g></g><text
       id="text54"
       style="font-style:italic;font-variant:normal;font-weight:normal;font-stretch:normal;font-size:8.25px;font-family:Arial;-inkscape-font-specification:Arial-ItalicMT;writing-mode:lr-tb;fill:#000000;fill-opacity:1;fill-rule:nonzero;stroke:none"
       transform="matrix(1,0,0,-1,85.56,770.7803)"><tspan
         id="tspan52"
         y="0"
         x="0 4.503675 6.71385 8.9949751 11.994675 13.4937 17.997375 22.501051 24.711226 29.214899">attributes</tspan></text>
<path
       id="path56"
       style="fill:#c0c0c0;fill-opacity:1;fill-rule:nonzero;stroke:none"
       d="m 84.06,741.44 h 39 v 15.78 h -39 z" /><path
       id="path58"
       style="fill:#ffffff;fill-opacity:1;fill-rule:nonzero;stroke:none"
       d="M 81.12,744.5 H 120 v 15.66 H 81.12 Z" /><path
       id="path60"
       style="fill:none;stroke:#000000;stroke-width:0.06;stroke-linecap:round;stroke-linejoin:round;stroke-miterlimit:10;stroke-dasharray:none;stroke-opacity:1"
       d="M 120,760.22 H 81.06 V 744.5 H 120 Z" /><path
       id="path62"
       style="fill:#ffffff;fill-opacity:1;fill-rule:nonzero;stroke:none"
       d="m 87.78,747.68 h 18 v 9.54 h -18 z" /><text
       id="text66"
       style="font-variant:normal;font-weight:bold;font-stretch:normal;font-size:8.25px;font-family:Arial;-inkscape-font-specification:Arial-BoldMT;writing-mode:lr-tb;fill:#000000;fill-opacity:1;fill-rule:nonzero;stroke:none"
       transform="matrix(1,0,0,-1,87.78,749.5403)"><tspan
         id="tspan64"
         y="0"
         x="0 5.2816501 10.503075 12.7842">guid</tspan></text>
<path
       id="path68"
       style="fill:#c0c0c0;fill-opacity:1;fill-rule:nonzero;stroke:none"
       d="m 84.06,720.44 h 52.5 v 15.78 h -52.5 z" /><path
       id="path70"
       style="fill:#ffffff;fill-opacity:1;fill-rule:nonzero;stroke:none"
       d="m 81.12,723.5 h 52.38 v 15.66 H 81.12 Z" /><path
       id="path72"
       style="fill:none;stroke:#000000;stroke-width:0.06;stroke-linecap:round;stroke-linejoin:round;stroke-miterlimit:10;stroke-dasharray:none;stroke-opacity:1"
       d="M 133.5,739.22 H 81.06 V 723.5 h 52.44 z" /><path
       id="path74"
       style="fill:#ffffff;fill-opacity:1;fill-rule:nonzero;stroke:none"
       d="m 87.78,726.68 h 38.28 v 9.54 H 87.78 Z" /><text
       id="text78"
       style="font-variant:normal;font-weight:bold;font-stretch:normal;font-size:8.25px;font-family:Arial;-inkscape-font-specification:Arial-BoldMT;writing-mode:lr-tb;fill:#000000;fill-opacity:1;fill-rule:nonzero;stroke:none"
       transform="matrix(1,0,0,-1,87.78,728.5403)"><tspan
         id="tspan76"
         y="0"
         x="0 4.5069752 9.7886248 15.01005 18.008924 21.008625 26.290276 28.50375 31.50345 33.784576">shortTitle</tspan></text>
<path
       id="path80"
       style="fill:#c0c0c0;fill-opacity:1;fill-rule:nonzero;stroke:none"
       d="m 84.06,699.44 h 71.22 v 15.78 H 84.06 Z" /><path
       id="path82"
       style="fill:#ffffff;fill-opacity:1;fill-rule:nonzero;stroke:none"
       d="m 81.12,702.5 h 71.1 v 15.66 h -71.1 z" /><g
       transform="translate(152.22,718.22)"
       id="g84"><path
         id="path86"
         style="fill:none;stroke:#ffffff;stroke-width:0.06;stroke-linecap:round;stroke-linejoin:round;stroke-miterlimit:10;stroke-dasharray:2.88, 2.88, 2.88, 2.88, 2.88, 2.88, 2.88, 2.88;stroke-dashoffset:0;stroke-opacity:1"
         d="M 0,0 H -71.16 V -15.72 H 0 Z" /></g><g
       transform="translate(152.22,718.22)"
       id="g88"><path
         id="path90"
         style="fill:none;stroke:#000000;stroke-width:0.06;stroke-linecap:round;stroke-linejoin:round;stroke-miterlimit:10;stroke-dasharray:2.88, 2.88, 2.88, 2.88, 2.88, 2.88, 2.88, 2.88;stroke-dashoffset:0;stroke-opacity:1"
         d="M 0,0 H -71.16 V -15.72 H 0 Z" /></g><path
       id="path92"
       style="fill:#ffffff;fill-opacity:1;fill-rule:nonzero;stroke:none"
       d="m 87.78,705.68 h 57.78 v 9.54 H 87.78 Z" /><text
       id="text96"
       style="font-variant:normal;font-weight:bold;font-stretch:normal;font-size:8.25px;font-family:Arial;-inkscape-font-specification:Arial-BoldMT;writing-mode:lr-tb;fill:#000000;fill-opacity:1;fill-rule:nonzero;stroke:none"
       transform="matrix(1,0,0,-1,87.78,707.5403)"><tspan
         id="tspan94"
         y="0"
         x="0 2.2811251 7.5025501 12.001275 16.5 18.781124 24.0009 29.282551 34.503975 37.50285 40.502548 45.784199 48.005924 51.005627 53.286751">localShortTitle</tspan></text>
<path
       id="path98"
       style="fill:#c0c0c0;fill-opacity:1;fill-rule:nonzero;stroke:none"
       d="m 84.06,678.44 h 42.72 v 15.78 H 84.06 Z" /><path
       id="path100"
       style="fill:#ffffff;fill-opacity:1;fill-rule:nonzero;stroke:none"
       d="m 81.12,681.5 h 42.6 v 15.66 h -42.6 z" /><path
       id="path102"
       style="fill:none;stroke:#000000;stroke-width:0.06;stroke-linecap:round;stroke-linejoin:round;stroke-miterlimit:10;stroke-dasharray:none;stroke-opacity:1"
       d="M 123.72,697.22 H 81.06 V 681.5 h 42.66 z" /><path
       id="path104"
       style="fill:#ffffff;fill-opacity:1;fill-rule:nonzero;stroke:none"
       d="m 87.78,684.68 h 30 v 9.54 h -30 z" /><text
       id="text108"
       style="font-variant:normal;font-weight:bold;font-stretch:normal;font-size:8.25px;font-family:Arial;-inkscape-font-specification:Arial-BoldMT;writing-mode:lr-tb;fill:#000000;fill-opacity:1;fill-rule:nonzero;stroke:none"
       transform="matrix(1,0,0,-1,87.78,686.5403)"><tspan
         id="tspan106"
         y="0"
         x="0 2.997225 8.2879496 10.509675 12.7908 18.012224 20.29335 23.290575 25.5123">fullTitle</tspan></text>
<path
       id="path110"
       style="fill:#c0c0c0;fill-opacity:1;fill-rule:nonzero;stroke:none"
       d="m 84.06,657.44 h 45.72 v 15.78 H 84.06 Z" /><path
       id="path112"
       style="fill:#ffffff;fill-opacity:1;fill-rule:nonzero;stroke:none"
       d="m 81.12,660.5 h 45.6 v 15.66 h -45.6 z" /><g
       transform="translate(126.72,676.22)"
       id="g114"><path
         id="path116"
         style="fill:none;stroke:#ffffff;stroke-width:0.06;stroke-linecap:round;stroke-linejoin:round;stroke-miterlimit:10;stroke-dasharray:2.88, 2.88, 2.88, 2.88, 2.88, 2.88, 2.88, 2.88;stroke-dashoffset:0;stroke-opacity:1"
         d="M 0,0 H -45.66 V -15.72 H 0 Z" /></g><g
       transform="translate(126.72,676.22)"
       id="g118"><path
         id="path120"
         style="fill:none;stroke:#000000;stroke-width:0.06;stroke-linecap:round;stroke-linejoin:round;stroke-miterlimit:10;stroke-dasharray:2.88, 2.88, 2.88, 2.88, 2.88, 2.88, 2.88, 2.88;stroke-dashoffset:0;stroke-opacity:1"
         d="M 0,0 H -45.66 V -15.72 H 0 Z" /></g><path
       id="path122"
       style="fill:#ffffff;fill-opacity:1;fill-rule:nonzero;stroke:none"
       d="m 87.78,663.68 h 32.28 v 9.54 H 87.78 Z" /><text
       id="text126"
       style="font-variant:normal;font-weight:bold;font-stretch:normal;font-size:8.25px;font-family:Arial;-inkscape-font-specification:Arial-BoldMT;writing-mode:lr-tb;fill:#000000;fill-opacity:1;fill-rule:nonzero;stroke:none"
       transform="matrix(1,0,0,-1,87.78,665.5403)"><tspan
         id="tspan124"
         y="0"
         x="0 4.5069752 9.7886248 15.01005 20.2917 22.505175 25.504875 27.785999">subTitle</tspan></text>
<path
       id="path128"
       style="fill:#c0c0c0;fill-opacity:1;fill-rule:nonzero;stroke:none"
       d="m 84.06,636.44 h 49.5 v 15.78 h -49.5 z" /><path
       id="path130"
       style="fill:#ffffff;fill-opacity:1;fill-rule:nonzero;stroke:none"
       d="m 81.12,639.5 h 49.38 v 15.66 H 81.12 Z" /><path
       id="path132"
       style="fill:none;stroke:#000000;stroke-width:0.06;stroke-linecap:round;stroke-linejoin:round;stroke-miterlimit:10;stroke-dasharray:none;stroke-opacity:1"
       d="M 130.5,655.22 H 81.06 V 639.5 h 49.44 z" /><path
       id="path134"
       style="fill:#ffffff;fill-opacity:1;fill-rule:nonzero;stroke:none"
       d="m 87.78,642.68 h 36 v 9.54 h -36 z" /><text
       id="text138"
       style="font-variant:normal;font-weight:bold;font-stretch:normal;font-size:8.25px;font-family:Arial;-inkscape-font-specification:Arial-BoldMT;writing-mode:lr-tb;fill:#000000;fill-opacity:1;fill-rule:nonzero;stroke:none"
       transform="matrix(1,0,0,-1,87.78,644.5403)"><tspan
         id="tspan136"
         y="0"
         x="0 2.2811251 7.5025501 15.000975 20.99955 26.2812 31.502625">idmCode</tspan></text>
<path
       id="path140"
       style="fill:#c0c0c0;fill-opacity:1;fill-rule:nonzero;stroke:none"
       d="m 84.06,615.44 h 52.5 v 15.78 h -52.5 z" /><path
       id="path142"
       style="fill:#ffffff;fill-opacity:1;fill-rule:nonzero;stroke:none"
       d="m 81.12,618.5 h 52.38 v 15.66 H 81.12 Z" /><g
       transform="translate(133.5,634.22)"
       id="g144"><path
         id="path146"
         style="fill:none;stroke:#ffffff;stroke-width:0.06;stroke-linecap:round;stroke-linejoin:round;stroke-miterlimit:10;stroke-dasharray:2.88, 2.88, 2.88, 2.88, 2.88, 2.88, 2.88, 2.88;stroke-dashoffset:0;stroke-opacity:1"
         d="M 0,0 H -52.44 V -15.72 H 0 Z" /></g><g
       transform="translate(133.5,634.22)"
       id="g148"><path
         id="path150"
         style="fill:none;stroke:#000000;stroke-width:0.06;stroke-linecap:round;stroke-linejoin:round;stroke-miterlimit:10;stroke-dasharray:2.88, 2.88, 2.88, 2.88, 2.88, 2.88, 2.88, 2.88;stroke-dashoffset:0;stroke-opacity:1"
         d="M 0,0 H -52.44 V -15.72 H 0 Z" /></g><path
       id="path152"
       style="fill:#ffffff;fill-opacity:1;fill-rule:nonzero;stroke:none"
       d="m 87.78,621.68 h 39.78 v 9.54 H 87.78 Z" /><text
       id="text156"
       style="font-variant:normal;font-weight:bold;font-stretch:normal;font-size:8.25px;font-family:Arial;-inkscape-font-specification:Arial-BoldMT;writing-mode:lr-tb;fill:#000000;fill-opacity:1;fill-rule:nonzero;stroke:none"
       transform="matrix(1,0,0,-1,87.78,623.5403)"><tspan
         id="tspan154"
         y="0"
         x="0 2.2811251 7.5025501 12.001275 16.5 18.781124 24.779699 30.001125 35.282776">localCode</tspan></text>
<path
       id="path158"
       style="fill:#c0c0c0;fill-opacity:1;fill-rule:nonzero;stroke:none"
       d="m 84.06,594.44 h 80.22 v 15.78 H 84.06 Z" /><path
       id="path160"
       style="fill:#ffffff;fill-opacity:1;fill-rule:nonzero;stroke:none"
       d="m 81.12,597.5 h 80.1 v 15.66 h -80.1 z" /><path
       id="path162"
       style="fill:none;stroke:#000000;stroke-width:0.06;stroke-linecap:round;stroke-linejoin:round;stroke-miterlimit:10;stroke-dasharray:none;stroke-opacity:1"
       d="M 161.22,613.22 H 81.06 V 597.5 h 80.16 z" /><path
       id="path164"
       style="fill:#ffffff;fill-opacity:1;fill-rule:nonzero;stroke:none"
       d="m 87.78,600.68 h 66 v 9.54 h -66 z" /><text
       id="text168"
       style="font-variant:normal;font-weight:bold;font-stretch:normal;font-size:8.25px;font-family:Arial;-inkscape-font-specification:Arial-BoldMT;writing-mode:lr-tb;fill:#000000;fill-opacity:1;fill-rule:nonzero;stroke:none"
       transform="matrix(1,0,0,-1,87.78,602.5403)"><tspan
         id="tspan166"
         y="0"
         x="0 5.2816501 10.503075 15.0018 20.283449 27.781876 32.280602 37.502026 40.501724 45.781727 48.781425 53.280151 56.27985 61.501274">documentStatus</tspan></text>
<path
       id="path170"
       style="fill:#c0c0c0;fill-opacity:1;fill-rule:nonzero;stroke:none"
       d="m 84.06,573.44 h 99 v 15.78 h -99 z" /><path
       id="path172"
       style="fill:#ffffff;fill-opacity:1;fill-rule:nonzero;stroke:none"
       d="M 81.12,576.5 H 180 v 15.66 H 81.12 Z" /><g
       transform="translate(180,592.22)"
       id="g174"><path
         id="path176"
         style="fill:none;stroke:#ffffff;stroke-width:0.06;stroke-linecap:round;stroke-linejoin:round;stroke-miterlimit:10;stroke-dasharray:2.88, 2.88, 2.88, 2.88, 2.88, 2.88, 2.88, 2.88;stroke-dashoffset:0;stroke-opacity:1"
         d="M 0,0 H -98.94 V -15.72 H 0 Z" /></g><g
       transform="translate(180,592.22)"
       id="g178"><path
         id="path180"
         style="fill:none;stroke:#000000;stroke-width:0.06;stroke-linecap:round;stroke-linejoin:round;stroke-miterlimit:10;stroke-dasharray:2.88, 2.88, 2.88, 2.88, 2.88, 2.88, 2.88, 2.88;stroke-dashoffset:0;stroke-opacity:1"
         d="M 0,0 H -98.94 V -15.72 H 0 Z" /></g><path
       id="path182"
       style="fill:#ffffff;fill-opacity:1;fill-rule:nonzero;stroke:none"
       d="m 87.78,579.68 h 85.5 v 9.54 h -85.5 z" /><text
       id="text186"
       style="font-variant:normal;font-weight:bold;font-stretch:normal;font-size:8.25px;font-family:Arial;-inkscape-font-specification:Arial-BoldMT;writing-mode:lr-tb;fill:#000000;fill-opacity:1;fill-rule:nonzero;stroke:none"
       transform="matrix(1,0,0,-1,87.78,581.5403)"><tspan
         id="tspan184"
         y="0"
         x="0 2.2811251 7.5025501 12.001275 16.5 18.781124 24.779699 30.001125 34.499851 39.781502 47.279926 51.778648 57.000076 59.999775 65.279778 68.279472 72.778198 75.777901 80.999329">localDocumentStatus</tspan></text>
<path
       id="path188"
       style="fill:#c0c0c0;fill-opacity:1;fill-rule:nonzero;stroke:none"
       d="m 84.06,552.44 h 43.5 v 15.78 h -43.5 z" /><path
       id="path190"
       style="fill:#ffffff;fill-opacity:1;fill-rule:nonzero;stroke:none"
       d="m 81.12,555.5 h 43.38 v 15.66 H 81.12 Z" /><g
       transform="translate(124.5,571.22)"
       id="g192"><path
         id="path194"
         style="fill:none;stroke:#ffffff;stroke-width:0.06;stroke-linecap:round;stroke-linejoin:round;stroke-miterlimit:10;stroke-dasharray:2.88, 2.88, 2.88, 2.88, 2.88, 2.88, 2.88, 2.88;stroke-dashoffset:0;stroke-opacity:1"
         d="M 0,0 H -43.44 V -15.72 H 0 Z" /></g><g
       transform="translate(124.5,571.22)"
       id="g196"><path
         id="path198"
         style="fill:none;stroke:#000000;stroke-width:0.06;stroke-linecap:round;stroke-linejoin:round;stroke-miterlimit:10;stroke-dasharray:2.88, 2.88, 2.88, 2.88, 2.88, 2.88, 2.88, 2.88;stroke-dashoffset:0;stroke-opacity:1"
         d="M 0,0 H -43.44 V -15.72 H 0 Z" /></g><path
       id="path200"
       style="fill:#ffffff;fill-opacity:1;fill-rule:nonzero;stroke:none"
       d="m 87.78,558.68 h 29.28 v 9.54 H 87.78 Z" /><text
       id="text204"
       style="font-variant:normal;font-weight:bold;font-stretch:normal;font-size:8.25px;font-family:Arial;-inkscape-font-specification:Arial-BoldMT;writing-mode:lr-tb;fill:#000000;fill-opacity:1;fill-rule:nonzero;stroke:none"
       transform="matrix(1,0,0,-1,87.78,560.5403)"><tspan
         id="tspan202"
         y="0"
         x="0 4.4987249 8.9974499 11.996325 16.49505 18.776175 23.997601">version</tspan></text>
<path
       id="path206"
       style="fill:#ffffff;fill-opacity:1;fill-rule:nonzero;stroke:none"
       d="m 74.28,769.22 h 8.28 v 8.22 h -8.28 z" /><path
       id="path208"
       style="fill:#ffffff;fill-opacity:1;fill-rule:nonzero;stroke:none"
       d="m 74.28,769.22 h 8.28 v 8.22 h -8.28 z" /><path
       id="path210"
       style="fill:#ffffff;fill-opacity:1;fill-rule:nonzero;stroke:none"
       d="m 74.34,769.28 h 8.16 v 8.1 h -8.16 z" /><path
       id="path212"
       style="fill:none;stroke:#000000;stroke-width:0.06;stroke-linecap:round;stroke-linejoin:round;stroke-miterlimit:10;stroke-dasharray:none;stroke-opacity:1"
       d="m 82.5,777.44 h -8.22 v -8.16 h 8.22 z m -6.72,-3.72 h 5.28 m -6.78,3.72 h 8.28 m 0,0 v -8.22 m 0,0 h -8.28 m 0,0 v 8.22 m 0,0 h 8.28" /><path
       id="path214"
       style="fill:#ffffff;fill-opacity:1;fill-rule:nonzero;stroke:none"
       d="M 70.62,522.5 H 132 v 15.66 H 70.62 Z" /><path
       id="path216"
       style="fill:none;stroke:#000000;stroke-width:0.06;stroke-linecap:round;stroke-linejoin:round;stroke-miterlimit:10;stroke-dasharray:none;stroke-opacity:1"
       d="M 132,538.22 H 70.56 V 522.5 H 132 Z" /><g
       id="g218"><g
         clip-path="url(#clipPath224)"
         id="g220"><path
           id="path226"
           style="fill:#ffffff;fill-opacity:1;fill-rule:nonzero;stroke:none"
           d="m 85.56,526.22 h 40.5 v 9 h -40.5 z" /></g></g><text
       id="text230"
       style="font-style:italic;font-variant:normal;font-weight:normal;font-stretch:normal;font-size:8.25px;font-family:Arial;-inkscape-font-specification:Arial-ItalicMT;writing-mode:lr-tb;fill:#000000;fill-opacity:1;fill-rule:nonzero;stroke:none"
       transform="matrix(1,0,0,-1,85.56,527.7803)"><tspan
         id="tspan228"
         y="0"
         x="0 4.5003748 9.0024004 13.504425 18.004801 20.213326 23.213024 27.71505 29.214075 33.716099 35.997227">constraints</tspan></text>
<path
       id="path232"
       style="fill:#ffffff;fill-opacity:1;fill-rule:nonzero;stroke:none"
       d="m 74.28,526.22 h 8.28 v 8.22 h -8.28 z" /><path
       id="path234"
       style="fill:#ffffff;fill-opacity:1;fill-rule:nonzero;stroke:none"
       d="m 74.28,526.22 h 8.28 v 8.22 h -8.28 z" /><path
       id="path236"
       style="fill:#ffffff;fill-opacity:1;fill-rule:nonzero;stroke:none"
       d="m 74.34,526.28 h 8.16 v 8.1 h -8.16 z" /><path
       id="path238"
       style="fill:none;stroke:#000000;stroke-width:0.06;stroke-linecap:round;stroke-linejoin:round;stroke-miterlimit:10;stroke-dasharray:none;stroke-opacity:1"
       d="m 82.5,534.44 h -8.22 v -8.16 h 8.22 z m -6.72,-3.72 h 5.28 m -3,2.22 v -5.22 m -3.78,6.72 h 8.28 m 0,0 v -8.22 m 0,0 h -8.28 m 0,0 v 8.22 m 0,0 h 8.28" /><path
       id="path240"
       style="fill:#ffffff;fill-opacity:1;fill-rule:nonzero;stroke:none"
       d="m 44.28,659.72 h 8.28 v 8.22 h -8.28 z" /><path
       id="path242"
       style="fill:#ffffff;fill-opacity:1;fill-rule:nonzero;stroke:none"
       d="m 44.28,659.72 h 8.28 v 8.22 h -8.28 z" /><path
       id="path244"
       style="fill:#ffffff;fill-opacity:1;fill-rule:nonzero;stroke:none"
       d="m 44.34,659.78 h 8.16 v 8.1 h -8.16 z" /><path
       id="path246"
       style="fill:none;stroke:#000000;stroke-width:0.06;stroke-linecap:round;stroke-linejoin:round;stroke-miterlimit:10;stroke-dasharray:none;stroke-opacity:1"
       d="m 52.5,667.94 h -8.22 v -8.16 h 8.22 z m -6.72,-3.72 h 5.28 m -6.78,3.72 h 8.28 m 0,0 v -8.22 m 0,0 h -8.28 m 0,0 v 8.22 m 0,0 h 8.28" /></g></svg>